<svg width="40" height="37" fill="none" xmlns="http://www.w3.org/2000/svg"><g clip-path="url(#clip0_1281_32)"><path fill-rule="evenodd" clip-rule="evenodd" d="M38.727 10.073a1.139 1.139 0 01.259.922l-1.908 11.773a3.405 3.405 0 01-3.36 2.87l-20.849.09a1.139 1.139 0 10.01 2.278l18.223-.08a3.417 3.417 0 11-3.21 2.293l-7.226.031a3.417 3.417 0 11-6.442.028l-1.335.006a3.417 3.417 0 01-1.275-6.591l-1.42-12.285c-.84-7.277-.842-7.29-.837-7.297l.001-.007A1.139 1.139 0 008.214 2.97L1.229 3a1.139 1.139 0 11-.01-2.278l6.985-.03a3.422 3.422 0 013.431 3.333l.666 5.76 3.915-.017-.015-3.416a1.139 1.139 0 011.134-1.144l5.695-.025-.005-1.14A1.139 1.139 0 0124.16 2.9l9.112-.04a1.139 1.139 0 011.143 1.134l.025 5.695 3.417-.015a1.139 1.139 0 01.871.399zm-6.471 21.266a1.139 1.139 0 10-2.278.01 1.139 1.139 0 002.278-.01zm-13.667.06a1.14 1.14 0 10-2.28.01 1.14 1.14 0 002.28-.01zm.328-11.743a1.284 1.284 0 11-2.57.011l-.022-5.138a1.284 1.284 0 112.57-.01l.021 5.137zm6.428 1.257a1.284 1.284 0 001.279-1.29l-.023-5.139a1.284 1.284 0 10-2.569.012l.023 5.138c.003.71.58 1.282 1.29 1.279zm8.986-1.324a1.284 1.284 0 11-2.57.011l-.021-5.138a1.284 1.284 0 112.569-.011l.022 5.138z" fill="#fff"/></g><defs><clipPath id="clip0_1281_32"><path fill="#fff" transform="rotate(-.25 47.021 -1.157)" d="M0 0h40v36H0z"/></clipPath></defs></svg>