<svg width="81" height="80" fill="none" xmlns="http://www.w3.org/2000/svg"><path d="M46.123 23.426c-6.104 4.423-8.426 7.374-9.276 8.763.164 0 .326.016.49.016 3.132 0 5.649-1.807 7.305-3.037l.81-.601c.617-.45.865-2.857.67-5.141z" fill="#EA1C24"/><path d="M2.427 2.427l-1.176 37.99L0 0h75.916c-7.266 1.848-16.04 4.075-21.641 5.588-24.337 6.26-34.38 25.224-34.969 26.778-.437 1.143-.27 1.37.221 1.855l3.132.205a11.17 11.17 0 005.51-1.008c2.032-.962 4.01-3.37 5.934-7.223.188 2.12.263 3.239.224 3.358l7.398-7.064.038 1.276 15.052-12.769-9.98 11.458c.02.145.039.323.06.54a18.4 18.4 0 01.116 3.069l9.931-4.027-9.243 6.203c12.453-1.556 21.103-2.042 32.304-2.187v21.814c-.853-1.586-3.382-4.755-4.046-5.472-.442-.453-.877-.93-1.362-1.37a28.308 28.308 0 00-3.12-2.555c-.572-.377-1.125-.785-1.73-1.119l-.393-.23-.5-.293-.919-.456c-.604-.33-1.246-.577-1.872-.852-.307-.143-.634-.248-.95-.364l-.42-.151-.54-.192a54.38 54.38 0 00-1.906-.54l-.836-.183-1.047-.226-.809-.124-1.017-.157c-.601-.065-1.19-.108-1.758-.162l-.19-.019-.237-.021h-2.025c-.27 0-.513 0-.76.016l-.643.022-.78.027c-.45 0-.876.07-1.275.1l-.512.045-.605.057c-.345.027-.658.089-.944.127l-.903.132-.88.13h.67l1.127-.02h.944l.47.017.641.026c.391.02.81.03 1.26.063l.596.056.793.078.736.081.332.054.429.068.342.054.443.07.175.03.224.035.175.037.227.049c.54.124 1.079.237 1.65.372l.737.213.954.27.745.27.957.345c.561.242 1.128.483 1.689.736l.361.186.464.24c.278.133.548.28.81.443.539.326 1.078.617 1.58.987l.766.523.728.57c.496.36.936.79 1.394 1.18a24.79 24.79 0 012.414 2.579c.37.431.69.898 1.02 1.348.159.224.307.454.456.675.148.22.296.44.428.666.517.83.987 1.688 1.408 2.57a79.888 79.888 0 014.834 12.278V80l-12.448-.386c1.675-4.334 2.05-7.989 2.358-10.489.615-3.827-.081-10.449-2.358-15.436-4.585-8.862-11.303-10.861-20.897-11.182-2.158-.07-13.729.51-21.92 12.043-1.993 2.808-3.433 4.377-1.432 9.14-9.555-5.984-11.671-15.113-6.35-27.386a4.742 4.742 0 00.322-2.628 2.497 2.497 0 01.143-1.31C23.152 18.084 33.892 10.27 40.638 5.934a47.227 47.227 0 014.917-2.697l-43.128-.81zm43.066 26.055c.682-.577.706-3.35.599-4.939-5.975 4.335-8.34 7.231-9.17 8.593h.485c3.093 0 5.567-1.82 7.201-3.026.324-.237.629-.456.898-.642l-.013.014z" fill="#fff"/><path d="M61.65 51.3c4.698 6.063 5.86 13.436 3.487 22.117a635.747 635.747 0 00-1.548 6.08l-23.153-.718 18.902-.601c1.467-2.948 7.477-16.184 2.311-26.878z" fill="#fff"/></svg>