<svg width="64" height="64" fill="none" xmlns="http://www.w3.org/2000/svg"><circle opacity=".1" cx="32" cy="32" r="31.2" stroke="#ACD5FE" stroke-width="1.6"/><path d="M31.444 32.458c-3.117 0-5.643-3.028-5.643-6.76 0-3.732 2.526-6.498 5.643-6.498 3.118 0 5.645 2.766 5.645 6.498s-2.527 6.76-5.645 6.76zm-8.778 9.138s-1.197.079-1.724-.647c-.285-.393-.086-1.188.109-1.632l.477-1.087s1.32-2.951 2.821-4.661c.923-1.049 2.02-.81 2.73-.469.437.21.931.821 1.292 1.145.498.447 1.377.954 2.813.983h.882c1.435-.029 2.314-.536 2.811-.983.361-.323.842-.954 1.275-1.17.651-.327 1.643-.527 2.541.494 1.503 1.71 2.693 4.714 2.693 4.714l.489 1.067c.202.44.41 1.232.132 1.63-.494.71-1.603.616-1.603.616H22.666z" fill="#fff"/></svg>