<svg width="32" height="32" fill="none" xmlns="http://www.w3.org/2000/svg"><path d="M30.222 22.222c-2.133 0-4.266-.355-6.4-1.066-.533-.178-1.244 0-1.778.355l-3.91 3.911C13.155 22.933 9.066 18.667 6.4 13.69l3.911-3.911c.533-.534.711-1.245.356-1.778-.534-1.956-.89-4.089-.89-6.222C9.778.71 9.068 0 8 0H1.778C.71 0 0 .711 0 1.778 0 18.488 13.511 32 30.222 32 31.29 32 32 31.289 32 30.222V24c0-1.067-.711-1.778-1.778-1.778zM28.444 16H32c0-8.889-7.111-16-16-16v3.556c6.933 0 12.444 5.51 12.444 12.444zm-7.11 0h3.555c0-4.978-3.911-8.889-8.889-8.889v3.556c3.022 0 5.333 2.31 5.333 5.333z" fill="#D43C38"/></svg>