<svg width="40" height="37" viewBox="0 0 40 37" fill="none" xmlns="http://www.w3.org/2000/svg">
<g clip-path="url(#clip0_1281_32)">
<path fill-rule="evenodd" clip-rule="evenodd" d="M38.7273 10.0727C38.8348 10.1984 38.9135 10.346 38.9582 10.5053C39.0028 10.6645 39.0122 10.8316 38.9857 10.9948L37.0781 22.7678C36.9507 23.5675 36.5425 24.2955 35.9268 24.8214C35.3111 25.3473 34.5282 25.6366 33.7185 25.6375L12.8691 25.7284C12.5671 25.7297 12.2779 25.851 12.0653 26.0655C11.8526 26.28 11.7339 26.5702 11.7352 26.8723C11.7365 27.1744 11.8578 27.4635 12.0723 27.6762C12.2868 27.8889 12.577 28.0076 12.8791 28.0063L31.1021 27.9268C31.8274 27.9235 32.5349 28.1512 33.1223 28.5768C33.7096 29.0024 34.1463 29.6038 34.3691 30.2941C34.5919 30.9844 34.5893 31.7276 34.3615 32.4163C34.1338 33.1049 33.6929 33.7033 33.1025 34.1247C32.5121 34.5461 31.803 34.7687 31.0777 34.7602C30.3524 34.7518 29.6486 34.5128 29.0682 34.0777C28.4878 33.6427 28.0609 33.0343 27.8493 32.3405C27.6376 31.6467 27.6523 30.9036 27.8911 30.2187L20.6657 30.2502C20.8504 30.7648 20.9089 31.3163 20.8363 31.8582C20.7638 32.4001 20.5622 32.9167 20.2486 33.3645C19.9349 33.8124 19.5184 34.1784 19.034 34.432C18.5496 34.6855 18.0114 34.819 17.4646 34.8214C16.9179 34.8238 16.3786 34.6949 15.8919 34.4457C15.4053 34.1964 14.9856 33.834 14.6681 33.3889C14.3506 32.9438 14.1445 32.429 14.0672 31.8877C13.9899 31.3464 14.0436 30.7945 14.2239 30.2783L12.889 30.2842C12.0936 30.2867 11.3221 30.0116 10.7078 29.5063C10.0934 29.001 9.67459 28.2971 9.52354 27.5161C9.37249 26.7351 9.49868 25.9259 9.88033 25.228C10.262 24.53 10.8752 23.9871 11.6143 23.6929C10.9797 18.201 10.523 14.2502 10.1944 11.4078C9.35308 4.13076 9.35166 4.11846 9.35697 4.11085C9.35697 4.11085 9.35798 4.10951 9.35796 4.10353C9.35664 3.80147 9.23538 3.5123 9.02086 3.29964C8.80633 3.08698 8.51612 2.96824 8.21405 2.96956L1.22858 3.00003C0.926515 3.00135 0.636299 2.88262 0.421776 2.66996C0.207252 2.4573 0.0859939 2.16813 0.0846764 1.86606C0.0833589 1.564 0.20209 1.27378 0.41475 1.05926C0.627411 0.844734 0.91658 0.723476 1.21864 0.722158L8.20412 0.69169C9.09812 0.688774 9.95775 1.0359 10.5991 1.65877C11.2404 2.28165 11.6124 3.13079 11.6355 4.0245L12.3007 9.78548L16.2164 9.7684L16.2015 6.3516C16.2002 6.04953 16.3189 5.75932 16.5316 5.54479C16.7442 5.33027 17.0334 5.20901 17.3355 5.20769L23.0302 5.18285L23.0252 4.04392C23.0239 3.74185 23.1426 3.45164 23.3553 3.23711C23.5679 3.02259 23.8571 2.90133 24.1592 2.90001L33.2706 2.86027C33.5727 2.85896 33.8629 2.97769 34.0774 3.19035C34.292 3.40301 34.4132 3.69218 34.4145 3.99424L34.4394 9.68892L37.8562 9.67402C38.0216 9.6732 38.1853 9.70845 38.3357 9.77729C38.4862 9.84613 38.6198 9.94692 38.7273 10.0727ZM32.2559 31.3386C32.2549 31.1134 32.1872 30.8935 32.0612 30.7067C31.9352 30.52 31.7567 30.3748 31.5482 30.2895C31.3397 30.2042 31.1106 30.1826 30.8899 30.2275C30.6692 30.2724 30.4667 30.3818 30.3081 30.5418C30.1495 30.7018 30.0419 30.9052 29.9989 31.1263C29.956 31.3474 29.9795 31.5763 30.0666 31.7841C30.1537 31.9918 30.3005 32.169 30.4883 32.2934C30.6762 32.4177 30.8967 32.4835 31.1219 32.4825C31.424 32.4812 31.7132 32.36 31.9258 32.1454C32.1385 31.9309 32.2572 31.6407 32.2559 31.3386ZM18.5887 31.3983C18.5877 31.173 18.5199 30.9531 18.394 30.7663C18.268 30.5796 18.0895 30.4344 17.881 30.3491C17.6725 30.2638 17.4434 30.2422 17.2227 30.2871C17.0019 30.332 16.7995 30.4414 16.6409 30.6014C16.4823 30.7614 16.3747 30.9648 16.3317 31.1859C16.2887 31.407 16.3123 31.6359 16.3994 31.8437C16.4865 32.0514 16.6333 32.2286 16.8211 32.353C17.0089 32.4773 17.2294 32.5431 17.4547 32.5422C17.7568 32.5408 18.0459 32.4196 18.2586 32.2051C18.4713 31.9905 18.59 31.7003 18.5887 31.3983ZM18.9165 19.6561C18.9196 20.3656 18.3471 20.9432 17.6376 20.9463C16.9281 20.9493 16.3506 20.3768 16.3475 19.6673L16.3251 14.5293C16.322 13.8198 16.8945 13.2423 17.604 13.2392C18.3135 13.2361 18.891 13.8086 18.8941 14.5181L18.9165 19.6561ZM25.3446 20.9126C26.0541 20.9095 26.6266 20.332 26.6235 19.6225L26.6011 14.4845C26.598 13.775 26.0205 13.2025 25.311 13.2056C24.6015 13.2086 24.029 13.7862 24.0321 14.4957L24.0545 19.6337C24.0576 20.3432 24.6351 20.9157 25.3446 20.9126ZM34.3309 19.5889C34.334 20.2984 33.7615 20.8759 33.052 20.879C32.3425 20.8821 31.765 20.3096 31.7619 19.6001L31.7395 14.4621C31.7364 13.7526 32.3089 13.175 33.0184 13.1719C33.7279 13.1688 34.3054 13.7414 34.3085 14.4509L34.3309 19.5889Z" fill="white"/>
</g>
<defs>
<clipPath id="clip0_1281_32">
<rect width="40" height="36" fill="white" transform="translate(0.00549316 0.205078) rotate(-0.249903)"/>
</clipPath>
</defs>
</svg>
